<?xml version="1.0" encoding="UTF-8" standalone="no"?>
<!DOCTYPE svg PUBLIC "-//W3C//DTD SVG 1.1//EN" "http://www.w3.org/Graphics/SVG/1.1/DTD/svg11.dtd">
<svg width="100%" height="100%" viewBox="0 0 31 26" version="1.1" xmlns="http://www.w3.org/2000/svg" xmlns:xlink="http://www.w3.org/1999/xlink" xml:space="preserve" xmlns:serif="http://www.serif.com/" style="fill-rule:evenodd;clip-rule:evenodd;stroke-linejoin:round;stroke-miterlimit:2;">
    <g transform="matrix(1,0,0,1,-38,-136)">
        <rect x="0" y="0" width="300" height="300" style="fill:rgb(50,136,175);"/>
    </g>
    <g id="_022f5dc1-b253-44c8-8e4d-ec1eea5d7ea8" serif:id="022f5dc1-b253-44c8-8e4d-ec1eea5d7ea8">
    </g>
    <g id="_3ec51da3-a14c-4a05-9200-f5aa4efb46ec" serif:id="3ec51da3-a14c-4a05-9200-f5aa4efb46ec" transform="matrix(0.311188,0,0,0.311188,0.444214,-1.55944)">
        <path d="M71.62,59.237L64.448,63.21C60.024,65.655 55.052,66.94 49.998,66.944C44.944,66.94 39.972,65.655 35.549,63.21L26.753,58.337C26.863,62.42 26.691,66.758 25.027,70.219C24.568,71.164 23.65,72.019 23.667,73.155C23.687,74.731 25.479,74.997 26.769,74.757C26.769,74.757 34.373,73.299 44.895,83.611C45.94,84.636 46.971,85.6 48.387,86.101C51.158,87.084 53.218,85.386 55.122,83.593C56.418,82.374 57.863,81.316 59.315,80.287C62.801,77.824 67.225,74.727 71.666,74.652C71.666,74.652 77.395,75.902 74.062,70.59C74.062,70.59 72.535,65.669 71.62,59.237M14.998,55.277L13.331,65.277L13.331,78.611L19.998,78.611L19.998,65.277L18.331,55.277L18.331,46.051L14.998,44.204L14.998,55.277Z" style="fill:rgb(235,227,213);fill-rule:nonzero;"/>
        <path d="M93.499,34.391L61.22,16.512C54.249,12.647 45.753,12.647 38.782,16.512L6.498,34.391C4.5,35.499 4.5,38.387 6.498,39.497L14.998,44.203L14.998,36.944L53.332,36.944L53.332,40.277L18.331,40.277L18.331,46.05L38.781,57.377C45.753,61.24 54.247,61.24 61.219,57.377L93.498,39.498C95.501,38.387 95.501,35.5 93.499,34.391" style="fill:rgb(235,227,213);fill-rule:nonzero;"/>
    </g>
</svg>
