<?xml version="1.0" encoding="UTF-8" standalone="no"?>
<!DOCTYPE svg PUBLIC "-//W3C//DTD SVG 1.1//EN" "http://www.w3.org/Graphics/SVG/1.1/DTD/svg11.dtd">
<svg width="100%" height="100%" viewBox="0 0 1306 559" version="1.1" xmlns="http://www.w3.org/2000/svg" xmlns:xlink="http://www.w3.org/1999/xlink" xml:space="preserve" xmlns:serif="http://www.serif.com/" style="fill-rule:evenodd;clip-rule:evenodd;stroke-linejoin:round;stroke-miterlimit:2;">
    <g transform="matrix(4.16667,0,0,4.16667,-585,-1336.9)">
        <path d="M455.066,402.093C454.327,399.841 452.225,398.319 449.855,398.319L429.052,398.319L441.079,377.511C442.059,375.814 442.06,373.723 441.081,372.025C440.101,370.328 438.29,369.282 436.33,369.282L424.303,369.282C423.544,369.282 422.81,369.442 422.136,369.733C421.464,369.442 420.728,369.282 419.964,369.282L374.766,369.282C372.809,369.282 371,370.325 370.019,372.019L364.897,380.871C364.48,379.487 363.871,378.179 363.058,376.976C359.702,372.014 353.299,369.282 345.029,369.282L326.574,369.282C325.39,369.282 324.238,369.665 323.29,370.374L317.9,374.404C317.87,373.948 317.782,373.49 317.633,373.041C316.889,370.797 314.791,369.282 312.427,369.282L287.679,369.282L316.047,330.144C317.726,327.827 317.342,324.609 315.166,322.753C314.137,321.875 312.87,321.44 311.607,321.44C310.199,321.44 308.795,321.98 307.728,323.047L260.869,369.902C260.104,369.504 259.241,369.282 258.338,369.282L213.141,369.282C211.876,369.282 210.676,369.723 209.719,370.489C208.761,369.723 207.562,369.282 206.296,369.282L194.207,369.282C192.25,369.282 190.441,370.325 189.46,372.018L177.11,393.346C174.43,397.984 170.786,398.319 165.102,398.319L158.385,398.319C157.216,398.319 156.077,398.693 155.135,399.386L141.472,409.439C139.563,410.843 138.772,413.315 139.511,415.567C140.251,417.819 142.353,419.341 144.723,419.341L159.318,419.341C168.286,419.341 176.143,417.647 182.67,414.305C183.506,413.877 184.321,413.422 185.116,412.939C184.905,414.179 185.114,415.473 185.762,416.596C186.742,418.295 188.553,419.341 190.514,419.341L228.122,419.341C229.295,419.341 230.437,418.965 231.381,418.268L233.221,416.908C234.221,418.401 235.914,419.341 237.774,419.341L258.867,419.341L234.315,443.894C232.746,445.462 232.277,447.821 233.126,449.871C233.975,451.92 235.975,453.257 238.193,453.257L255.102,453.257C256.557,453.257 257.952,452.679 258.98,451.65L277.659,432.972C277.78,433.337 277.93,433.696 278.131,434.036C279.117,435.708 280.914,436.735 282.855,436.735L293.336,436.735C293.908,436.735 294.473,436.645 295.011,436.472C295.537,436.638 296.088,436.735 296.656,436.735L306.274,436.735C306.843,436.735 307.405,436.645 307.941,436.475C308.464,436.639 309.013,436.735 309.577,436.735L320.058,436.735C321.215,436.735 322.342,436.369 323.278,435.69L323.855,435.271C325.439,436.226 327.392,436.735 329.594,436.735L335.063,436.735C336.223,436.735 337.354,436.366 338.293,435.683L338.807,435.308C339.802,436.209 341.103,436.735 342.483,436.735L345.852,436.735C346.934,436.735 347.963,436.407 348.839,435.838C349.715,436.408 350.744,436.735 351.824,436.735L355.193,436.735C356.631,436.735 357.986,436.172 358.993,435.205C359.993,436.165 361.344,436.735 362.793,436.735L367.302,436.735C367.517,436.735 367.729,436.719 367.939,436.694C368.142,436.717 368.347,436.735 368.554,436.735L371.923,436.735C373.122,436.735 374.26,436.337 375.19,435.646C376.639,436.358 378.346,436.735 380.239,436.735L385.707,436.735C386.868,436.735 387.999,436.366 388.937,435.683L390.766,434.35C391.784,435.831 393.462,436.735 395.276,436.735L404.894,436.735C405.463,436.735 406.025,436.645 406.561,436.475C407.084,436.639 407.633,436.735 408.197,436.735L417.815,436.735C418.968,436.735 420.092,436.372 421.026,435.697L421.418,435.413C422.957,436.276 424.822,436.735 426.913,436.735L432.381,436.735C433.542,436.735 434.673,436.366 435.611,435.683L439.222,433.052C441.106,431.679 441.913,429.267 441.245,427.043L443.428,425.446C445.343,424.045 446.141,421.571 445.404,419.315C444.918,417.829 443.837,416.663 442.479,416.039L453.105,408.221C455.014,406.817 455.805,404.345 455.066,402.093" style="fill:white;fill-rule:nonzero;"/>
    </g>
    <g transform="matrix(4.43409,0,-1.51656,4.16667,19.0326,-1409)">
        <text x="282.31px" y="448.074px" style="font-family:'Arial-ItalicMT', 'Arial', sans-serif;font-style:italic;font-size:15.293px;fill:rgb(39,44,101);">E<tspan x="295.813px 307.62px 321.123px 335.47px 348.114px 362.461px 370.012px 384.359px 387.952px 399.76px 411.568px " y="448.074px 448.074px 448.074px 448.074px 448.074px 448.074px 448.074px 448.074px 448.074px 448.074px 448.074px ">LECTRIC	LLC</tspan></text>
    </g>
    <g transform="matrix(256.558,0,0,-256.558,20.0092,177.935)">
        <clipPath id="_clip1">
            <path d="M0.804,-0.174L0.603,-0.521C0.55,-0.612 0.482,-0.646 0.331,-0.646L0.222,-0.646L0,-0.809L0.237,-0.809C0.501,-0.809 0.689,-0.713 0.799,-0.521L1,-0.174L0.804,-0.174Z" clip-rule="nonzero"/>
        </clipPath>
        <g clip-path="url(#_clip1)">
            <rect x="-2.358" y="-6.677" width="9.939" height="12.863" style="fill:url(#_Linear2);"/>
        </g>
    </g>
    <g transform="matrix(282.602,0,0,-282.602,210.805,177.935)">
        <clipPath id="_clip3">
            <path d="M0.334,-0.158L0,-0.734L0.554,-0.734L0.755,-0.586L0.264,-0.586L0.31,-0.508L0.664,-0.508L0.841,-0.377L0.385,-0.377L0.425,-0.308L0.798,-0.308L1,-0.158L0.334,-0.158Z" clip-rule="nonzero"/>
        </clipPath>
        <g clip-path="url(#_clip3)">
            <rect x="-2.816" y="-6.062" width="9.023" height="11.677" style="fill:url(#_Linear4);"/>
        </g>
    </g>
    <g transform="matrix(311.056,0,0,-311.056,407.722,177.935)">
        <clipPath id="_clip5">
            <path d="M0.546,-0.144C0.362,-0.144 0.257,-0.224 0.215,-0.331C0.184,-0.407 0.217,-0.457 0.336,-0.457L0.622,-0.457C0.655,-0.457 0.667,-0.467 0.659,-0.488C0.646,-0.519 0.622,-0.533 0.578,-0.533L0.181,-0.533L0,-0.667L0.487,-0.667C0.673,-0.667 0.778,-0.585 0.823,-0.472C0.855,-0.393 0.811,-0.353 0.697,-0.353L0.412,-0.353C0.379,-0.353 0.366,-0.344 0.374,-0.323C0.387,-0.292 0.41,-0.28 0.454,-0.28L0.817,-0.28L1,-0.144L0.546,-0.144Z" clip-rule="nonzero"/>
        </clipPath>
        <g clip-path="url(#_clip5)">
            <rect x="-3.191" y="-5.507" width="8.198" height="10.609" style="fill:url(#_Linear6);"/>
        </g>
    </g>
    <g transform="matrix(265.752,0,0,-265.752,651.583,177.935)">
        <clipPath id="_clip7">
            <path d="M0.475,-0.168L0.262,-0.328L0.672,-0.328C0.764,-0.328 0.806,-0.383 0.776,-0.458C0.737,-0.556 0.617,-0.623 0.501,-0.623L0.281,-0.623L0.41,-0.399L0.221,-0.399L0,-0.781L0.41,-0.781C0.645,-0.781 0.901,-0.625 0.98,-0.428C1.042,-0.274 0.957,-0.168 0.764,-0.168L0.475,-0.168Z" clip-rule="nonzero"/>
        </clipPath>
        <g clip-path="url(#_clip7)">
            <rect x="-4.653" y="-6.446" width="9.595" height="12.418" style="fill:url(#_Linear8);"/>
        </g>
    </g>
    <g transform="matrix(282.58,0,0,-282.58,884.267,177.935)">
        <clipPath id="_clip9">
            <path d="M0.334,-0.158L0,-0.735L0.554,-0.735L0.755,-0.586L0.264,-0.586L0.31,-0.508L0.664,-0.508L0.841,-0.377L0.385,-0.377L0.425,-0.308L0.798,-0.308L1,-0.158L0.334,-0.158Z" clip-rule="nonzero"/>
        </clipPath>
        <g clip-path="url(#_clip9)">
            <rect x="-5.199" y="-6.062" width="9.024" height="11.678" style="fill:url(#_Linear10);"/>
        </g>
    </g>
    <g transform="matrix(200.747,0,0,-200.747,1090.65,177.935)">
        <clipPath id="_clip11">
            <path d="M0.47,-0.223L-0,-1.034L0.716,-1.034L1,-0.825L0.371,-0.825L0.719,-0.223L0.47,-0.223Z" clip-rule="nonzero"/>
        </clipPath>
        <g clip-path="url(#_clip11)">
            <rect x="-8.347" y="-8.533" width="12.703" height="16.439" style="fill:url(#_Linear12);"/>
        </g>
    </g>
    <g transform="matrix(4.16667,0,0,4.16667,-585,-1303.44)">
        <path d="M287.242,390.246C286.792,389.84 285.944,389.638 284.687,389.638L263.372,389.638C254.496,389.638 252.022,385.898 254.296,380.228C254.83,378.896 255.508,377.624 256.31,376.419L242.483,390.246L287.242,390.246Z" style="fill:rgb(39,44,101);fill-rule:nonzero;"/>
    </g>
    <g transform="matrix(-2.94628,2.94628,2.94628,2.94628,291.922,-1368.08)">
        <path d="M252.09,343.104L297.819,343.104L289.021,351.901L236.632,351.901C241.641,351.017 246.865,348.289 252.09,343.104" style="fill:rgb(39,44,101);fill-rule:nonzero;"/>
    </g>
    <g transform="matrix(4.16667,0,0,4.16667,-585,-1562.86)">
        <path d="M275.326,428.698L299.112,395.883L261.948,433.043C265.371,430.737 269.798,429.177 275.326,428.698" style="fill:rgb(39,44,101);fill-rule:nonzero;"/>
    </g>
    <g transform="matrix(4.16667,0,0,4.16667,-585,-1261.12)">
        <path d="M299.732,380.588C299.073,382.231 298.244,383.783 297.243,385.222L309.927,372.539L310.65,371.287L266.654,371.287C267.155,371.57 267.951,371.707 269.073,371.707L290.327,371.707C298.795,371.707 302.073,374.746 299.732,380.588" style="fill:rgb(39,44,101);fill-rule:nonzero;"/>
    </g>
    <g transform="matrix(4.16667,0,0,4.16667,-585,-1524.37)">
        <path d="M282.707,448.251C285.181,447.996 286.649,446.95 287.435,444.99C287.743,444.223 287.676,443.653 287.252,443.267L242.486,443.267L256.312,429.441C257.747,427.285 259.621,425.369 261.961,423.794L299.114,386.643L275.333,419.453C275.998,419.395 276.678,419.352 277.375,419.327L312.086,371.439L238.672,444.846L286.112,444.846L282.707,448.251Z" style="fill:rgb(117,123,126);fill-rule:nonzero;"/>
    </g>
    <g transform="matrix(4.16667,0,0,4.16667,-585,-1339.27)">
        <path d="M266.655,390.043L310.626,390.043L310.893,389.58L313.864,389.58L314.979,388.463L267.547,388.463L269.895,385.222C268.045,385.593 266.907,386.517 266.217,388.236C265.866,389.114 266.026,389.693 266.655,390.043" style="fill:rgb(117,123,126);fill-rule:nonzero;"/>
    </g>
    <g transform="matrix(4.16667,0,0,4.16667,-585,-1072.94)">
        <path d="M309.884,327.404L297.228,340.06C295.836,342.06 294.093,343.828 291.982,345.306L254.927,382.361L242.486,382.361L274.826,350.021C274.766,350.021 274.71,350.026 274.65,350.026L272.587,350.026L238.672,383.94L255.582,383.94L306.819,332.703L309.884,327.404Z" style="fill:rgb(117,123,126);fill-rule:nonzero;"/>
    </g>
    <g transform="matrix(4.16667,0,0,4.16667,-585,-1409)">
        <rect x="0" y="0" width="612" height="792" style="fill:white;fill-opacity:0;"/>
    </g>
    <defs>
        <linearGradient id="_Linear2" x1="0" y1="0" x2="1" y2="0" gradientUnits="userSpaceOnUse" gradientTransform="matrix(1,0,0,-1,0,-0.491621)"><stop offset="0" style="stop-color:rgb(254,210,42);stop-opacity:1"/><stop offset="1" style="stop-color:rgb(236,39,45);stop-opacity:1"/></linearGradient>
        <linearGradient id="_Linear4" x1="0" y1="0" x2="1" y2="0" gradientUnits="userSpaceOnUse" gradientTransform="matrix(1,0,0,-1,0,-0.446314)"><stop offset="0" style="stop-color:rgb(254,210,42);stop-opacity:1"/><stop offset="1" style="stop-color:rgb(236,39,45);stop-opacity:1"/></linearGradient>
        <linearGradient id="_Linear6" x1="0" y1="0" x2="1" y2="0" gradientUnits="userSpaceOnUse" gradientTransform="matrix(1,0,0,-1,0,-0.405488)"><stop offset="0" style="stop-color:rgb(254,210,42);stop-opacity:1"/><stop offset="1" style="stop-color:rgb(236,39,45);stop-opacity:1"/></linearGradient>
        <linearGradient id="_Linear8" x1="0" y1="0" x2="1" y2="0" gradientUnits="userSpaceOnUse" gradientTransform="matrix(1,0,0,-1,0,-0.474613)"><stop offset="0" style="stop-color:rgb(254,210,42);stop-opacity:1"/><stop offset="1" style="stop-color:rgb(236,39,45);stop-opacity:1"/></linearGradient>
        <linearGradient id="_Linear10" x1="0" y1="0" x2="1" y2="0" gradientUnits="userSpaceOnUse" gradientTransform="matrix(1,0,0,-1,0,-0.446348)"><stop offset="0" style="stop-color:rgb(254,210,42);stop-opacity:1"/><stop offset="1" style="stop-color:rgb(236,39,45);stop-opacity:1"/></linearGradient>
        <linearGradient id="_Linear12" x1="0" y1="0" x2="1" y2="0" gradientUnits="userSpaceOnUse" gradientTransform="matrix(1,0,0,-1,0,-0.628299)"><stop offset="0" style="stop-color:rgb(254,210,42);stop-opacity:1"/><stop offset="1" style="stop-color:rgb(236,39,45);stop-opacity:1"/></linearGradient>
    </defs>
</svg>
