<svg data-v-423bf9ae="" xmlns="http://www.w3.org/2000/svg" viewBox="0 0 711.2876082964608 163" class="iconAbove"><!----><!----><!----><g data-v-423bf9ae="" id="844f8750-72a6-4d5a-b79f-df049e965db1" fill="white" transform="matrix(5.4794516730146245,0,0,5.4794516730146245,-3.890407366905322,83.43836003889786)"><path d="M5.26 13.62C3.70 13.62 2.69 12.50 2.69 10.65L2.69 8.27C2.69 6.43 3.70 5.31 5.26 5.31C6.83 5.31 7.84 6.43 7.84 8.27L7.84 10.65C7.84 12.50 6.83 13.62 5.26 13.62ZM5.26 14.52C7.92 14.52 9.81 12.64 9.81 9.46C9.81 6.29 7.92 4.41 5.26 4.41C2.60 4.41 0.71 6.29 0.71 9.46C0.71 12.64 2.60 14.52 5.26 14.52ZM10.96 14.35L14.55 14.35L14.55 13.57L13.61 13.57L13.61 9.27C13.61 8.40 14.41 8.01 15.13 8.01C16.14 8.01 16.58 8.55 16.58 9.70L16.58 13.57L15.64 13.57L15.64 14.35L19.22 14.35L19.22 13.57L18.26 13.57L18.26 9.62C18.26 7.81 17.57 6.90 15.76 6.90C14.62 6.90 13.93 7.55 13.68 8.19L13.61 8.19L13.61 3.57L10.96 4.09L10.96 4.73L11.93 4.91L11.93 13.57L10.96 13.57ZM20.27 14.35L23.83 14.35L23.83 13.57L22.92 13.57L22.92 9.27C22.92 8.41 23.65 8.01 24.40 8.01C25.35 8.01 25.79 8.55 25.79 9.70L25.79 13.57L24.88 13.57L24.88 14.35L28.38 14.35L28.38 13.57L27.47 13.57L27.47 9.27C27.47 8.41 28.20 8.01 28.95 8.01C29.90 8.01 30.34 8.55 30.34 9.70L30.34 13.57L29.43 13.57L29.43 14.35L32.98 14.35L32.98 13.57L32.02 13.57L32.02 9.62C32.02 7.81 31.35 6.90 29.58 6.90C28.32 6.90 27.64 7.62 27.34 8.30L27.29 8.30C27.01 7.38 26.28 6.90 25.02 6.90C23.86 6.90 23.20 7.56 22.95 8.22L22.88 8.22L22.88 6.90L20.27 7.42L20.27 8.06L21.24 8.25L21.24 13.57L20.27 13.57ZM37.10 14.52C38.78 14.52 39.84 13.62 39.84 12.28C39.84 10.96 39.06 10.33 37.53 9.98L36.81 9.81C36.05 9.65 35.70 9.28 35.70 8.71C35.70 8.09 36.16 7.77 37.00 7.77C38.05 7.77 38.51 8.13 38.51 8.85L38.51 9.25L39.65 9.25L39.65 7.07L38.51 7.07L38.51 7.73L38.46 7.73C38.30 7.27 37.72 6.90 36.78 6.90C35.21 6.90 34.19 7.71 34.19 9.09C34.19 10.33 34.93 11.06 36.46 11.40L37.24 11.58C37.97 11.75 38.33 12.10 38.33 12.63C38.33 13.34 37.81 13.65 36.82 13.65C35.71 13.65 35.27 13.17 35.27 12.42L35.27 12.17L34.13 12.17L34.13 14.35L35.27 14.35L35.27 13.62L35.32 13.62C35.50 14.07 36.13 14.52 37.10 14.52ZM44.46 14.35L52.29 14.35L52.29 11.66L50.93 11.66L50.93 13.48L47.28 13.48L47.28 9.72L49.62 9.72L49.62 10.70L50.60 10.70L50.60 7.87L49.62 7.87L49.62 8.85L47.28 8.85L47.28 5.45L50.79 5.45L50.79 7.07L52.15 7.07L52.15 4.58L44.46 4.58L44.46 5.36L45.50 5.36L45.50 13.57L44.46 13.57ZM53.51 14.35L57.12 14.35L57.12 13.57L56.15 13.57L56.15 3.57L53.51 4.09L53.51 4.73L54.47 4.91L54.47 13.57L53.51 13.57ZM61.66 14.52C63.36 14.52 64.33 13.48 64.68 12.53L64.04 12.15C63.70 12.85 63.07 13.37 61.98 13.37C60.76 13.37 59.96 12.56 59.96 11.16L59.96 10.71L64.83 10.71L64.83 10.30C64.83 8.27 63.59 6.90 61.56 6.90C59.56 6.90 58.14 8.40 58.14 10.71C58.14 12.95 59.42 14.52 61.66 14.52ZM59.96 9.74C59.96 8.44 60.54 7.73 61.57 7.73C62.59 7.73 63.10 8.47 63.10 9.77L63.10 9.94L59.96 9.94ZM69.48 14.52C71.18 14.52 72.07 13.48 72.44 12.50L71.79 12.12C71.46 12.84 70.85 13.37 69.75 13.37C68.53 13.37 67.80 12.53 67.80 11.17L67.80 9.93C67.80 8.58 68.61 7.69 69.85 7.69C70.36 7.69 70.69 7.77 70.90 7.87L70.90 7.92C70.53 8.08 70.27 8.40 70.27 8.86C70.27 9.39 70.62 9.80 71.26 9.80C71.89 9.80 72.30 9.38 72.30 8.72C72.30 7.67 71.30 6.90 69.65 6.90C67.54 6.90 65.98 8.33 65.98 10.71C65.98 12.92 67.23 14.52 69.48 14.52ZM75.87 14.46C76.68 14.46 77.48 14.32 77.80 14.17L77.80 13.51L76.02 13.51L76.02 7.92L77.80 7.92L77.80 7.07L76.02 7.07L76.02 5.12L75.15 5.12L74.69 6.36C74.51 6.83 74.34 7.07 73.61 7.07L73.37 7.07L73.37 7.92L74.34 7.92L74.34 13.03C74.34 14.03 74.76 14.46 75.87 14.46ZM78.74 14.35L82.63 14.35L82.63 13.57L81.38 13.57L81.38 9.24C81.38 8.55 82.12 7.76 82.82 7.76C82.95 7.76 83.02 7.77 83.08 7.78L83.09 7.83C82.91 7.87 82.74 8.11 82.74 8.43C82.74 8.89 83.10 9.25 83.71 9.25C84.31 9.25 84.67 8.86 84.67 8.19C84.67 7.38 84.10 6.90 83.22 6.90C82.22 6.90 81.68 7.53 81.41 8.20L81.34 8.20L81.34 6.90L78.74 7.42L78.74 8.06L79.70 8.25L79.70 13.57L78.74 13.57ZM87.25 5.75C87.89 5.75 88.27 5.35 88.27 4.79L88.27 4.72C88.27 4.16 87.89 3.75 87.25 3.75C86.60 3.75 86.23 4.16 86.23 4.72L86.23 4.79C86.23 5.35 86.60 5.75 87.25 5.75ZM85.44 14.35L89.05 14.35L89.05 13.57L88.09 13.57L88.09 6.90L85.44 7.42L85.44 8.06L86.41 8.25L86.41 13.57L85.44 13.57ZM93.58 14.52C95.27 14.52 96.17 13.48 96.53 12.50L95.89 12.12C95.55 12.84 94.95 13.37 93.84 13.37C92.62 13.37 91.90 12.53 91.90 11.17L91.90 9.93C91.90 8.58 92.71 7.69 93.94 7.69C94.46 7.69 94.78 7.77 94.99 7.87L94.99 7.92C94.63 8.08 94.36 8.40 94.36 8.86C94.36 9.39 94.71 9.80 95.35 9.80C95.98 9.80 96.39 9.38 96.39 8.72C96.39 7.67 95.40 6.90 93.74 6.90C91.63 6.90 90.08 8.33 90.08 10.71C90.08 12.92 91.32 14.52 93.58 14.52ZM99.76 14.52C101.08 14.52 101.60 13.89 101.88 13.27L101.95 13.27L101.95 13.30C101.95 14.01 102.35 14.52 103.25 14.52C103.74 14.52 104.20 14.39 104.47 14.24L104.47 13.58L103.50 13.58L103.50 9.27C103.50 7.78 102.55 6.90 100.77 6.90C98.84 6.90 97.82 7.76 97.82 8.64C97.82 9.20 98.18 9.56 98.74 9.56C99.30 9.56 99.67 9.20 99.67 8.64C99.67 8.23 99.43 8.02 99.22 7.92L99.22 7.87C99.47 7.76 99.83 7.67 100.25 7.67C101.33 7.67 101.82 8.29 101.82 9.41L101.82 10.33L100.81 10.33C98.50 10.33 97.52 11.07 97.52 12.49C97.52 13.75 98.29 14.52 99.76 14.52ZM100.44 13.50C99.69 13.50 99.23 13.17 99.23 12.53L99.23 12.28C99.23 11.48 99.71 11.05 100.98 11.05L101.82 11.05L101.82 12.28C101.82 13.13 101.23 13.50 100.44 13.50ZM105.34 14.35L108.95 14.35L108.95 13.57L107.98 13.57L107.98 3.57L105.34 4.09L105.34 4.73L106.30 4.91L106.30 13.57L105.34 13.57ZM117.66 14.52C119.62 14.52 120.88 13.23 121.28 11.98L120.60 11.63C120.18 12.68 119.27 13.43 117.99 13.43C116.35 13.43 115.32 12.39 115.32 10.51L115.32 8.23C115.32 6.52 116.10 5.33 117.77 5.33C119.04 5.33 119.83 5.96 119.83 6.87L119.83 7.56L121.18 7.56L121.18 4.58L119.83 4.58L119.83 5.42L119.76 5.42C119.50 4.89 118.73 4.41 117.53 4.41C115.18 4.41 113.34 6.20 113.34 9.46C113.34 12.43 114.98 14.52 117.66 14.52ZM122.70 14.35L130.52 14.35L130.52 11.66L129.16 11.66L129.16 13.48L125.51 13.48L125.51 9.72L127.85 9.72L127.85 10.70L128.83 10.70L128.83 7.87L127.85 7.87L127.85 8.85L125.51 8.85L125.51 5.45L129.02 5.45L129.02 7.07L130.38 7.07L130.38 4.58L122.70 4.58L122.70 5.36L123.73 5.36L123.73 13.57L122.70 13.57Z"></path></g><!----><g data-v-423bf9ae="" id="2deb81c8-0ae3-4cfd-8ee9-c718eaf75800" transform="matrix(1.2366111315003174,0,0,1.2366111315003174,294.16902971788795,-16.22034263132351)" stroke="none" fill="white"><path d="M71.62 59.237l-7.172 3.973a29.916 29.916 0 01-14.45 3.734 29.924 29.924 0 01-14.449-3.734l-8.796-4.873c.11 4.083-.062 8.421-1.726 11.882-.459.945-1.377 1.8-1.36 2.936.02 1.576 1.812 1.842 3.102 1.602 0 0 7.604-1.458 18.126 8.854 1.045 1.025 2.076 1.989 3.492 2.49 2.771.983 4.831-.715 6.735-2.508 1.296-1.219 2.741-2.277 4.193-3.306 3.486-2.463 7.91-5.56 12.351-5.635 0 0 5.729 1.25 2.396-4.062 0 0-1.527-4.921-2.442-11.353M14.998 55.277l-1.667 10v13.334h6.667V65.277l-1.667-10v-9.226l-3.333-1.847z"></path><path d="M93.499 34.391L61.22 16.512a23.139 23.139 0 00-22.438 0L6.498 34.391c-1.998 1.108-1.998 3.996 0 5.106l8.5 4.706v-7.259h38.334v3.333H18.331v5.773l20.45 11.327a23.15 23.15 0 0022.438 0l32.279-17.879c2.003-1.111 2.003-3.998.001-5.107"></path></g><!----></svg>