<?xml version="1.0" encoding="UTF-8" standalone="no"?>
<!DOCTYPE svg PUBLIC "-//W3C//DTD SVG 1.1//EN" "http://www.w3.org/Graphics/SVG/1.1/DTD/svg11.dtd">
<svg width="100%" height="100%" viewBox="0 0 46 46" version="1.1" xmlns="http://www.w3.org/2000/svg" xmlns:xlink="http://www.w3.org/1999/xlink" xml:space="preserve" xmlns:serif="http://www.serif.com/" style="fill-rule:evenodd;clip-rule:evenodd;stroke-linejoin:round;stroke-miterlimit:2;">
    <g transform="matrix(1,0,0,1,-1,-1)">
        <path d="M24,46.2C11.759,46.2 1.8,36.241 1.8,24C1.8,11.759 11.759,1.8 24,1.8C36.241,1.8 46.2,11.759 46.2,24C46.2,36.241 36.241,46.2 24,46.2Z" style="fill:rgb(245,206,133);fill-rule:nonzero;"/>
    </g>
    <g transform="matrix(1,0,0,1,-1,-1)">
        <path d="M24,2.4C35.91,2.4 45.6,12.09 45.6,24C45.6,35.91 35.91,45.6 24,45.6C12.09,45.6 2.4,35.91 2.4,24C2.4,12.09 12.09,2.4 24,2.4M24,1.2C11.408,1.2 1.2,11.408 1.2,24C1.2,36.592 11.408,46.8 24,46.8C36.592,46.8 46.8,36.592 46.8,24C46.8,11.408 36.592,1.2 24,1.2Z" style="fill:rgb(150,122,68);fill-rule:nonzero;"/>
    </g>
    <g transform="matrix(1,0,0,1,-1,-1)">
        <path d="M20.4,9.6L22.8,9.6L22.8,15.138L20.4,15.138L20.4,9.6ZM25.2,9.6L27.6,9.6L27.6,15.138L25.2,15.138L25.2,9.6ZM20.4,32.862L22.8,32.862L22.8,38.4L20.4,38.4L20.4,32.862ZM25.2,32.862L27.6,32.862L27.6,38.4L25.2,38.4L25.2,32.862Z" style="fill:rgb(150,122,68);fill-rule:nonzero;"/>
    </g>
    <g transform="matrix(1,0,0,1,-1,-1)">
        <path d="M16.8,13.2L24.817,13.2C26.404,13.2 27.587,13.271 28.368,13.414C29.148,13.556 29.845,13.853 30.461,14.305C31.076,14.758 31.589,15.359 32,16.11C32.411,16.861 32.616,17.704 32.616,18.637C32.616,19.649 32.363,20.578 31.856,21.421C31.35,22.266 30.664,22.9 29.797,23.322C31.02,23.705 31.958,24.359 32.615,25.282C33.272,26.206 33.6,27.29 33.6,28.538C33.6,29.521 33.388,30.476 32.964,31.404C32.54,32.332 31.961,33.074 31.226,33.629C30.492,34.184 29.587,34.525 28.511,34.652C27.836,34.732 26.208,34.78 23.627,34.8L16.8,34.8L16.8,13.2ZM20.85,16.795L20.85,21.79L23.503,21.79C25.081,21.79 26.062,21.766 26.444,21.716C27.138,21.628 27.683,21.371 28.08,20.944C28.477,20.516 28.675,19.954 28.675,19.256C28.675,18.588 28.505,18.046 28.163,17.628C27.821,17.21 27.312,16.957 26.638,16.87C26.236,16.82 25.082,16.796 23.177,16.796L20.85,16.796L20.85,16.795ZM20.85,25.385L20.85,31.16L24.599,31.16C26.058,31.16 26.984,31.116 27.376,31.028C27.978,30.911 28.468,30.624 28.847,30.167C29.225,29.711 29.414,29.099 29.414,28.332C29.414,27.684 29.269,27.133 28.976,26.682C28.684,26.231 28.262,25.901 27.712,25.694C27.16,25.488 25.962,25.385 24.12,25.385L20.85,25.385Z" style="fill:rgb(150,122,68);fill-rule:nonzero;"/>
    </g>
</svg>
