<?xml version="1.0" encoding="UTF-8" standalone="no"?>
<!DOCTYPE svg PUBLIC "-//W3C//DTD SVG 1.1//EN" "http://www.w3.org/Graphics/SVG/1.1/DTD/svg11.dtd">
<svg width="100%" height="100%" viewBox="0 0 48 48" version="1.1" xmlns="http://www.w3.org/2000/svg" xmlns:xlink="http://www.w3.org/1999/xlink" xml:space="preserve" xmlns:serif="http://www.serif.com/" style="fill-rule:evenodd;clip-rule:evenodd;stroke-linejoin:round;stroke-miterlimit:2;">
    <path d="M1.5,5.738C1.5,3.488 3.338,1.65 5.588,1.65L42.413,1.65C44.663,1.65 46.5,3.488 46.5,5.738L46.5,42.3C46.5,44.55 44.663,46.388 42.413,46.388L5.588,46.388C3.338,46.388 1.5,44.55 1.5,42.3L1.5,5.738" style="fill:white;fill-rule:nonzero;"/>
    <path d="M42.412,47.475L5.588,47.475C2.7,47.475 0.375,45.15 0.375,42.262L0.375,5.738C0.375,2.85 2.7,0.525 5.588,0.525L42.413,0.525C45.3,0.525 47.625,2.85 47.625,5.738L47.625,42.3C47.625,45.15 45.3,47.475 42.412,47.475ZM5.588,2.775C3.938,2.775 2.625,4.088 2.625,5.738L2.625,42.3C2.625,43.95 3.938,45.263 5.588,45.263L42.413,45.263C44.063,45.263 45.375,43.95 45.375,42.3L45.375,5.738C45.375,4.088 44.063,2.775 42.413,2.775L5.588,2.775Z" style="fill:rgb(68,75,84);fill-rule:nonzero;"/>
    <path d="M17.775,30.75L18.75,26.625C18.9,26.063 19.5,25.575 20.1,25.575L20.888,25.575C24.3,25.575 27,24.9 28.875,23.475C30.787,22.087 31.725,20.25 31.725,18C31.725,16.987 31.537,16.163 31.2,15.487C30.862,14.813 30.337,14.287 29.662,13.875C28.987,13.462 28.162,13.163 27.225,12.975C26.287,12.788 25.2,12.712 23.925,12.712L18.075,12.712C17.475,12.712 16.875,13.2 16.725,13.762L12.788,30.75C12.638,31.313 13.05,31.8 13.65,31.8L16.463,31.8C17.025,31.8 17.663,31.313 17.775,30.75ZM20.063,20.925L20.925,17.325C21.075,16.763 21.675,16.275 22.275,16.275L23.212,16.275C24.3,16.275 25.088,16.463 25.65,16.8C26.213,17.138 26.475,17.7 26.475,18.45C26.475,19.575 26.063,20.437 25.2,21.037C24.338,21.638 23.175,21.937 21.675,21.937L20.963,21.937C20.325,21.975 19.95,21.487 20.063,20.925Z" style="fill:rgb(113,194,255);fill-rule:nonzero;"/>
    <path d="M33.3,18.038C33.45,18.525 33.525,19.125 33.525,19.763C33.525,22.013 32.587,23.85 30.675,25.237C28.763,26.625 26.1,27.337 22.688,27.337L21.9,27.337C21.3,27.337 20.7,27.825 20.55,28.387L19.575,32.475C19.425,33.037 18.825,33.525 18.225,33.525L16.463,33.525L16.312,34.2C16.125,34.763 16.538,35.25 17.138,35.25L19.95,35.25C20.55,35.25 21.15,34.763 21.3,34.2L22.275,30.112C22.425,29.55 23.025,29.063 23.625,29.063L24.375,29.063C27.787,29.063 30.45,28.388 32.362,26.963C34.275,25.575 35.213,23.738 35.213,21.488C35.213,20.475 35.025,19.65 34.687,18.975C34.463,18.525 34.162,18.15 33.787,17.85C33.638,17.663 33.188,17.737 33.3,18.038Z" style="fill:rgb(113,194,255);fill-rule:nonzero;"/>
</svg>
