<?xml version="1.0" encoding="UTF-8" standalone="no"?>
<!DOCTYPE svg PUBLIC "-//W3C//DTD SVG 1.1//EN" "http://www.w3.org/Graphics/SVG/1.1/DTD/svg11.dtd">
<svg width="100%" height="100%" viewBox="0 0 44 44" version="1.1" xmlns="http://www.w3.org/2000/svg" xmlns:xlink="http://www.w3.org/1999/xlink" xml:space="preserve" xmlns:serif="http://www.serif.com/" style="fill-rule:evenodd;clip-rule:evenodd;stroke-linejoin:round;stroke-miterlimit:2;">
    <g transform="matrix(1,0,0,1,-7,-7)">
        <path d="M42.292,50.75L15.708,50.75C11.037,50.75 7.25,46.963 7.25,42.292L7.25,15.708C7.25,11.037 11.037,7.25 15.708,7.25L42.292,7.25C46.963,7.25 50.75,11.037 50.75,15.708L50.75,42.292C50.75,46.963 46.963,50.75 42.292,50.75Z" style="fill:rgb(170,0,255);fill-rule:nonzero;"/>
    </g>
    <g transform="matrix(1,0,0,1,-7,-7)">
        <path d="M21.146,22.354L38.063,22.354C38.729,22.354 39.271,21.813 39.271,21.146L39.271,18.125C39.271,17.458 38.729,16.917 38.063,16.917L21.146,16.917C20.479,16.917 19.938,17.458 19.938,18.125L19.938,21.146C19.938,21.813 20.479,22.354 21.146,22.354Z" style="fill:white;fill-rule:nonzero;"/>
    </g>
    <g transform="matrix(1,0,0,1,-7,-7)">
        <path d="M20.542,41.688L38.063,41.688C38.729,41.688 39.271,41.146 39.271,40.479L39.271,37.458C39.271,36.791 38.729,36.25 38.063,36.25L20.542,36.25C19.875,36.25 19.333,36.791 19.333,37.458L19.333,40.479C19.333,41.146 19.875,41.688 20.542,41.688Z" style="fill:white;fill-rule:nonzero;"/>
    </g>
    <g transform="matrix(1,0,0,1,-7,-7)">
        <path d="M26.885,13.292L26.885,20.542C26.885,20.875 27.156,21.146 27.49,21.146L31.719,21.146C32.052,21.146 32.323,20.875 32.323,20.542L32.323,13.292C32.323,12.958 32.052,12.688 31.719,12.688L27.49,12.688C27.156,12.688 26.885,12.958 26.885,13.292Z" style="fill:white;fill-rule:nonzero;"/>
    </g>
    <g transform="matrix(1,0,0,1,-7,-7)">
        <path d="M26.885,38.667L26.885,45.917C26.885,46.25 27.156,46.521 27.49,46.521L31.719,46.521C32.052,46.521 32.323,46.25 32.323,45.917L32.323,38.667C32.323,38.333 32.052,38.063 31.719,38.063L27.49,38.063C27.156,38.063 26.885,38.333 26.885,38.667Z" style="fill:white;fill-rule:nonzero;"/>
    </g>
    <g transform="matrix(1,0,0,1,-7,-7)">
        <path d="M20.032,37.383L26.583,37.383L39.022,21.87C39.237,21.601 39.045,21.203 38.701,21.203L32.021,21.203L19.666,36.61C19.412,36.918 19.632,37.383 20.032,37.383Z" style="fill:white;fill-rule:nonzero;"/>
    </g>
</svg>
